<mxfile host="65bd71144e">
    <diagram id="BORFVMD8cnGc8But-lU_" name="BuildAutomationWithCMakeAndMake">
        <mxGraphModel dx="1779" dy="883" grid="1" gridSize="10" guides="1" tooltips="1" connect="1" arrows="1" fold="1" page="1" pageScale="1" pageWidth="850" pageHeight="1100" background="#B3B3B3" math="0" shadow="0">
            <root>
                <mxCell id="0"/>
                <mxCell id="1" parent="0"/>
                <mxCell id="6" style="edgeStyle=elbowEdgeStyle;html=1;exitX=1;exitY=0.5;exitDx=0;exitDy=0;exitPerimeter=0;entryX=1;entryY=0.5;entryDx=0;entryDy=0;entryPerimeter=0;fillColor=#6d8764;strokeColor=#004C99;endSize=7;startSize=7;jumpSize=6;strokeWidth=2;jumpStyle=sharp;rounded=0;endArrow=none;endFill=0;" edge="1" parent="1" source="3" target="4">
                    <mxGeometry relative="1" as="geometry">
                        <mxPoint x="170" y="470" as="targetPoint"/>
                        <Array as="points">
                            <mxPoint x="170" y="400"/>
                        </Array>
                    </mxGeometry>
                </mxCell>
                <mxCell id="3" value="*.cmake" style="strokeWidth=2;html=1;shape=mxgraph.flowchart.multi-document;whiteSpace=wrap;fillColor=#e3c800;fontColor=#000000;strokeColor=#B09500;" vertex="1" parent="1">
                    <mxGeometry x="30" y="240" width="100" height="60" as="geometry"/>
                </mxCell>
                <mxCell id="4" value="CMakeLists.txt&lt;br&gt;" style="strokeWidth=2;html=1;shape=mxgraph.flowchart.multi-document;whiteSpace=wrap;fillColor=#e3c800;fontColor=#000000;strokeColor=#B09500;" vertex="1" parent="1">
                    <mxGeometry x="20" y="420" width="120" height="60" as="geometry"/>
                </mxCell>
                <mxCell id="9" style="edgeStyle=elbowEdgeStyle;rounded=0;jumpStyle=sharp;jumpSize=6;html=1;exitX=0;exitY=0.5;exitDx=0;exitDy=0;strokeWidth=2;endArrow=none;endFill=0;startSize=7;endSize=7;startArrow=classic;startFill=1;strokeColor=#004C99;" edge="1" parent="1" source="7">
                    <mxGeometry relative="1" as="geometry">
                        <mxPoint x="170" y="359.9032258064515" as="targetPoint"/>
                    </mxGeometry>
                </mxCell>
                <mxCell id="11" style="edgeStyle=elbowEdgeStyle;rounded=0;jumpStyle=sharp;jumpSize=6;html=1;exitX=1;exitY=0.5;exitDx=0;exitDy=0;entryX=0;entryY=0.5;entryDx=0;entryDy=0;strokeColor=#004C99;strokeWidth=2;startArrow=none;startFill=0;endArrow=classic;endFill=1;startSize=7;endSize=7;" edge="1" parent="1" source="7" target="10">
                    <mxGeometry relative="1" as="geometry"/>
                </mxCell>
                <mxCell id="14" style="edgeStyle=elbowEdgeStyle;rounded=0;jumpStyle=sharp;jumpSize=6;html=1;exitX=1;exitY=0.5;exitDx=0;exitDy=0;entryX=0;entryY=0.5;entryDx=0;entryDy=0;strokeColor=#004C99;strokeWidth=2;startArrow=none;startFill=0;endArrow=classic;endFill=1;startSize=7;endSize=7;dashed=1;" edge="1" parent="1" source="7" target="12">
                    <mxGeometry relative="1" as="geometry">
                        <Array as="points">
                            <mxPoint x="350" y="310"/>
                        </Array>
                    </mxGeometry>
                </mxCell>
                <mxCell id="15" style="edgeStyle=elbowEdgeStyle;rounded=0;jumpStyle=sharp;jumpSize=6;html=1;exitX=1;exitY=0.5;exitDx=0;exitDy=0;entryX=0;entryY=0.5;entryDx=0;entryDy=0;dashed=1;strokeColor=#004C99;strokeWidth=2;startArrow=none;startFill=0;endArrow=classic;endFill=1;startSize=7;endSize=7;" edge="1" parent="1" source="7" target="13">
                    <mxGeometry relative="1" as="geometry">
                        <Array as="points">
                            <mxPoint x="350" y="430"/>
                        </Array>
                    </mxGeometry>
                </mxCell>
                <mxCell id="7" value="CMake" style="rounded=0;whiteSpace=wrap;html=1;fillColor=#647687;fontColor=#ffffff;strokeColor=#314354;" vertex="1" parent="1">
                    <mxGeometry x="210" y="330" width="120" height="60" as="geometry"/>
                </mxCell>
                <mxCell id="17" style="edgeStyle=elbowEdgeStyle;rounded=0;jumpStyle=sharp;jumpSize=6;html=1;exitX=1;exitY=0.5;exitDx=0;exitDy=0;strokeColor=#004C99;strokeWidth=2;startArrow=none;startFill=0;endArrow=none;endFill=0;startSize=7;endSize=7;" edge="1" parent="1" source="10">
                    <mxGeometry relative="1" as="geometry">
                        <mxPoint x="540" y="360" as="targetPoint"/>
                    </mxGeometry>
                </mxCell>
                <mxCell id="10" value="Make" style="rounded=0;whiteSpace=wrap;html=1;fillColor=#00CC00;fontColor=#ffffff;strokeColor=#314354;" vertex="1" parent="1">
                    <mxGeometry x="380" y="330" width="120" height="60" as="geometry"/>
                </mxCell>
                <mxCell id="16" style="edgeStyle=elbowEdgeStyle;rounded=0;jumpStyle=sharp;jumpSize=6;html=1;strokeColor=#004C99;strokeWidth=2;startArrow=none;startFill=0;endArrow=none;endFill=0;startSize=7;endSize=7;entryX=1;entryY=0.5;entryDx=0;entryDy=0;dashed=1;" edge="1" parent="1" source="12" target="13">
                    <mxGeometry relative="1" as="geometry">
                        <mxPoint x="600" y="450" as="targetPoint"/>
                        <Array as="points">
                            <mxPoint x="530" y="320"/>
                            <mxPoint x="540" y="370"/>
                        </Array>
                    </mxGeometry>
                </mxCell>
                <mxCell id="12" value="Ninja" style="rounded=0;whiteSpace=wrap;html=1;fillColor=#00CC00;fontColor=#ffffff;strokeColor=#314354;" vertex="1" parent="1">
                    <mxGeometry x="380" y="240" width="120" height="60" as="geometry"/>
                </mxCell>
                <mxCell id="13" value="IDE .sln project" style="rounded=0;whiteSpace=wrap;html=1;fillColor=#00CC00;fontColor=#ffffff;strokeColor=#314354;" vertex="1" parent="1">
                    <mxGeometry x="380" y="420" width="120" height="60" as="geometry"/>
                </mxCell>
                <mxCell id="19" style="edgeStyle=elbowEdgeStyle;rounded=0;jumpStyle=sharp;jumpSize=6;html=1;exitX=0;exitY=0.5;exitDx=0;exitDy=0;strokeColor=#004C99;strokeWidth=2;startArrow=classic;startFill=1;endArrow=none;endFill=0;startSize=7;endSize=7;" edge="1" parent="1" source="18">
                    <mxGeometry relative="1" as="geometry">
                        <mxPoint x="540" y="360.3333333333335" as="targetPoint"/>
                    </mxGeometry>
                </mxCell>
                <mxCell id="18" value="ARM GCC" style="rounded=0;whiteSpace=wrap;html=1;fillColor=#001DBC;fontColor=#ffffff;strokeColor=#001DBC;" vertex="1" parent="1">
                    <mxGeometry x="580" y="330" width="120" height="60" as="geometry"/>
                </mxCell>
                <mxCell id="21" value="&lt;font color=&quot;#000000&quot;&gt;&lt;span style=&quot;font-size: 25px;&quot;&gt;Build Automation With CMake &amp;amp; Make&lt;/span&gt;&lt;/font&gt;" style="text;html=1;strokeColor=none;fillColor=none;align=center;verticalAlign=middle;whiteSpace=wrap;rounded=0;" vertex="1" parent="1">
                    <mxGeometry x="100" y="180" width="560" height="30" as="geometry"/>
                </mxCell>
            </root>
        </mxGraphModel>
    </diagram>
</mxfile>